<svg xmlns="http://www.w3.org/2000/svg" viewBox="0 0 33.92 24.74"><defs><style>.cls-1{fill:#54c4ca;}</style></defs><title>icon_ChatX.ai_full_color</title><g id="Layer_2" data-name="Layer 2"><g id="Layer_1-2" data-name="Layer 1"><path class="cls-1" d="M17,13.65l-4.12,4.12a1.52,1.52,0,0,1-2.15-2.15l4.12-4.12L10.68,7.37a1.52,1.52,0,0,1,2.15-2.15L17,9.34l4.12-4.12a1.52,1.52,0,0,1,2.15,2.15l-4.12,4.12,13,13a1.11,1.11,0,0,0,1.77-.9V11.19h0A11.49,11.49,0,0,0,22.42,0H11.49a11.49,11.49,0,0,0,0,23H26.3Z"/></g></g></svg>